# xmcd
#
# Track frame offsets:
#	150
#	13453
#	23569
#	33481
#	46255
#	58246
#	70178
#	83848
#	93721
#	104803
#	115199
#	125963
#
# Disc length: 1811 seconds
#
# Revision: 1
# Processed by: cddbd v1.5.2PL0 Copyright (c) Steve Scherf et al.
# Submitted via: audiograbber 1.83.01
#
DISCID=ae07110c
DTITLE=Bobby Bare - Detroit City
DYEAR=1963
DGENRE=Country
TTITLE0=Detroit City
TTITLE1=Is It Wrong (For Loving You)
TTITLE2=Lorina
TTITLE3=Shame On Me
TTITLE4=I´d Fight the World
TTITLE5=Dear Wastebasket
TTITLE6=All-american Boy
TTITLE7=I Don´t Believe I´ll Fall In Love Today
TTITLE8=Brooklyn Bridge
TTITLE9=She Called Me Baby
TTITLE10=The Gods Were Angry With Me
TTITLE11=Book Of Love
EXTD=
EXTT0=
EXTT1=
EXTT2=
EXTT3=
EXTT4=
EXTT5=
EXTT6=
EXTT7=
EXTT8=
EXTT9=
EXTT10=
EXTT11=
PLAYORDER=
